<?xml version="1.0" encoding="utf-8"?>
<!-- Generator: Adobe Illustrator 14.0.0, SVG Export Plug-In . SVG Version: 6.00 Build 43363)  -->
<!DOCTYPE svg PUBLIC "-//W3C//DTD SVG 1.1//EN" "http://www.w3.org/Graphics/SVG/1.1/DTD/svg11.dtd">
<svg version="1.1" id="Layer_1" xmlns="http://www.w3.org/2000/svg" xmlns:xlink="http://www.w3.org/1999/xlink" x="0px" y="0px"
	 width="160px" height="160px" viewBox="0 0 160 160" enable-background="new 0 0 160 160" xml:space="preserve">
<g>
	<defs>
		<rect id="SVGID_1_" width="160" height="160"/>
	</defs>
	<clipPath id="SVGID_2_">
		<use xlink:href="#SVGID_1_"  overflow="visible"/>
	</clipPath>
	<path clip-path="url(#SVGID_2_)" d="M42.828,53.097v2.115c0,6.09-1.86,9.983-6.006,11.927c4.99,1.945,6.937,6.429,6.937,12.688
		v4.82c0,9.135-4.82,14.041-14.127,14.041H15V39.48h14.042C38.684,39.48,42.828,43.964,42.828,53.097z M24.304,47.938v15.646h3.638
		c3.468,0,5.583-1.521,5.583-6.259v-3.297c0-4.229-1.438-6.091-4.736-6.091H24.304z M24.304,72.044v18.186h5.328
		c3.131,0,4.821-1.438,4.821-5.835v-5.159c0-5.498-1.775-7.191-6.004-7.191H24.304z M58.222,39.48v45.676
		c0,4.229,1.858,5.75,4.82,5.75c2.959,0,4.82-1.521,4.82-5.75V39.48h8.798v45.083c0,9.474-4.737,14.887-13.872,14.887
		s-13.871-5.413-13.871-14.887V39.48H58.222z M109.983,76.612v7.867c0,9.473-4.734,14.887-13.871,14.887
		c-9.135,0-13.871-5.414-13.871-14.887V53.691c0-9.474,4.736-14.888,13.871-14.888c9.137,0,13.871,5.414,13.871,14.888v5.751h-8.796
		v-6.346c0-4.227-1.86-5.834-4.821-5.834c-2.959,0-4.82,1.607-4.82,5.834v31.975c0,4.229,1.861,5.752,4.82,5.752
		c2.961,0,4.821-1.522,4.821-5.752v-8.459H109.983z M124.954,98.688h-9.305V39.48h9.305v25.374h10.572V39.48h9.472v59.208h-9.472
		V73.313h-10.572V98.688z M25.23,16.516v0.778c0,2.238-0.685,3.668-2.208,4.384c1.834,0.714,2.549,2.362,2.549,4.664v1.771
		c0,3.356-1.771,5.162-5.191,5.162H15V11.51h5.163C23.708,11.51,25.23,13.157,25.23,16.516z M18.421,14.62v5.751h1.338
		c1.273,0,2.052-0.559,2.052-2.3v-1.213c0-1.556-0.53-2.238-1.742-2.238H18.421z M18.421,23.481v6.684h1.959
		c1.15,0,1.771-0.528,1.771-2.146v-1.895c0-2.021-0.652-2.643-2.207-2.643H18.421z M30.889,11.51v16.789
		c0,1.556,0.686,2.114,1.771,2.114c1.09,0,1.773-0.559,1.773-2.114V11.51h3.233v16.573c0,3.48-1.742,5.471-5.098,5.471
		c-3.36,0-5.102-1.99-5.102-5.471V11.51H30.889z M31.76,7.374v2.984h-2.985V7.374H31.76z M36.485,7.374v2.984H33.5V7.374H36.485z
		 M47.149,33.275c-0.186-0.562-0.31-0.903-0.31-2.677v-3.418c0-2.021-0.685-2.77-2.239-2.77H43.42v8.864h-3.421V11.51h5.161
		c3.544,0,5.067,1.647,5.067,5.006v1.71c0,2.24-0.714,3.701-2.237,4.414c1.71,0.716,2.27,2.365,2.27,4.635v3.357
		c0,1.058,0.031,1.835,0.374,2.644H47.149z M43.42,14.62v6.684h1.337c1.275,0,2.051-0.559,2.051-2.302v-2.144
		c0-1.556-0.527-2.238-1.74-2.238H43.42z M57.629,21.147h4.788v6.903c0,3.483-1.741,5.473-5.1,5.473c-3.357,0-5.1-1.989-5.1-5.473
		V16.733c0-3.482,1.742-5.473,5.1-5.473c3.358,0,5.1,1.99,5.1,5.473v2.114h-3.233v-2.332c0-1.556-0.685-2.146-1.773-2.146
		c-1.087,0-1.771,0.59-1.771,2.146v11.753c0,1.553,0.685,2.115,1.771,2.115c1.089,0,1.773-0.563,1.773-2.115v-4.011h-1.555V21.147z
		 M68.045,20.681h4.696v3.111h-4.696v6.373h5.907v3.11h-9.327V11.51h9.327v3.11h-5.907V20.681z M83.216,33.275
		c-0.186-0.562-0.31-0.903-0.31-2.677v-3.418c0-2.021-0.685-2.77-2.239-2.77h-1.181v8.864h-3.419V11.51h5.162
		c3.542,0,5.068,1.647,5.068,5.006v1.71c0,2.24-0.716,3.701-2.241,4.414c1.712,0.716,2.272,2.365,2.272,4.635v3.357
		c0,1.058,0.03,1.835,0.373,2.644H83.216z M79.486,14.62v6.684h1.337c1.274,0,2.054-0.559,2.054-2.302v-2.144
		c0-1.556-0.528-2.238-1.742-2.238H79.486z M93.169,11.261c3.326,0,5.037,1.99,5.037,5.473v0.684h-3.233v-0.901
		c0-1.556-0.623-2.146-1.71-2.146c-1.089,0-1.711,0.59-1.711,2.146c0,4.478,6.686,5.316,6.686,11.535c0,3.483-1.742,5.473-5.1,5.473
		s-5.1-1.989-5.1-5.473v-1.337h3.235v1.555c0,1.553,0.682,2.115,1.771,2.115c1.087,0,1.771-0.563,1.771-2.115
		c0-4.477-6.683-5.315-6.683-11.535C88.133,13.251,89.843,11.261,93.169,11.261z M99.199,11.51h10.573v3.11h-3.576v18.655h-3.422
		V14.62h-3.575V11.51z M121.152,33.275H117.7l-0.59-3.949h-4.198l-0.589,3.949h-3.142l3.483-21.766h5.005L121.152,33.275z
		 M113.347,26.372h3.299l-1.648-11.008L113.347,26.372z M122.739,11.51h5.41c3.417,0,5.098,1.897,5.098,5.378v11.008
		c0,3.482-1.681,5.38-5.098,5.38h-5.41V11.51z M126.16,14.62v15.545h1.927c1.086,0,1.738-0.559,1.738-2.114V16.733
		c0-1.555-0.652-2.113-1.738-2.113H126.16z M134.428,11.51H145v3.11h-3.576v18.655h-3.42V14.62h-3.576V11.51z M37.194,115.658v1.687
		c0,4.858-1.484,7.959-4.788,9.512c3.981,1.552,5.531,5.127,5.531,10.12v3.845c0,7.285-3.845,11.197-11.266,11.197H15v-47.223
		h11.199C33.89,104.796,37.194,108.373,37.194,115.658z M22.423,111.543v12.479h2.9c2.766,0,4.451-1.213,4.451-4.991v-2.632
		c0-3.373-1.146-4.856-3.777-4.856H22.423z M22.423,130.769v14.504h4.249c2.496,0,3.845-1.146,3.845-4.654v-4.115
		c0-4.384-1.417-5.734-4.789-5.734H22.423z M66.405,152.019h-7.487l-1.281-8.566h-9.107l-1.283,8.566h-6.812l7.554-47.223h10.86
		L66.405,152.019z M49.473,137.044h7.152l-3.576-23.882L49.473,137.044z M76.932,104.796v36.429c0,3.374,1.481,4.589,3.844,4.589
		s3.845-1.215,3.845-4.589v-36.429h7.018v35.957c0,7.557-3.777,11.873-11.063,11.873c-7.288,0-11.064-4.316-11.064-11.873v-35.957
		H76.932z M104.117,124.698h10.186v6.744h-10.186v13.83h12.819v6.746H96.698v-47.223h20.238v6.747h-12.819V124.698z
		 M128.134,117.816v34.202h-6.678v-47.223h9.309l7.625,28.268v-28.268H145v47.223h-7.623L128.134,117.816z"/>
</g>
</svg>
