<?xml version="1.0" encoding="utf-8"?>
<!-- Generator: Adobe Illustrator 14.0.0, SVG Export Plug-In . SVG Version: 6.00 Build 43363)  -->
<!DOCTYPE svg PUBLIC "-//W3C//DTD SVG 1.1//EN" "http://www.w3.org/Graphics/SVG/1.1/DTD/svg11.dtd">
<svg version="1.1" id="Layer_1" xmlns="http://www.w3.org/2000/svg" xmlns:xlink="http://www.w3.org/1999/xlink" x="0px" y="0px"
	 width="350px" height="350px" viewBox="0 0 350 350" enable-background="new 0 0 350 350" xml:space="preserve">
<path fill="#EB0037" d="M90.677,217.85l19.79,25.146l3.126-9.912l-19.056-19.99L90.677,217.85z M178.285,217.727l15.145,13.158
	l8.019-14.277l-14.959-12.16L178.285,217.727z M98.563,210.584l16.627,17.442l5.913-18.746l-14.395-8.737L98.563,210.584z
	 M160.439,202.229l16.067,13.957l8.163-13.215L169.12,190.33L160.439,202.229z M187.717,202.453l14.818,12.045l8.839-15.728
	l-14.565-11.033L187.717,202.453z M69.095,190.365l21.096,26.859l3.841-4.736l-21.808-26.659L69.095,190.365z M108.168,198.736
	l14.58,8.906l8.648-17.758l-10.051-7.4L108.168,198.736z M78.539,186.217l18.478,22.588l7.836-9.664l-21.035-20.588L78.539,186.217z
	 M141.502,187.711l14.224,10.473l8.517-11.672l-13.467-9.447L141.502,187.711z M170.489,188.451l15.41,12.526l9.051-14.651
	l-14.752-11.175L170.489,188.451z M199.74,184.127l13.91,10.539l11.729-20.883l-9.688-7.744L199.74,184.127z M152.313,175.305
	l13.299,9.33l9.848-13.498l-13.519-6.886L152.313,175.305z M125.97,176.281l10.527,7.75l9.183-10.542l-14.988-10.515L125.97,176.281
	z M85.155,176.611l21.166,20.72l13.154-16.224l-24.823-18.271L85.155,176.611z M184.273,172.414l13.611,10.307l15.991-18.132
	L205.639,158L184.273,172.414z M111.21,165.416l12.808,9.429l4.613-13.003l-12.216-6.249L111.21,165.416z M70.66,162.419
	l10.007,9.795l8.925-12.946l-11.212-7.6L70.66,162.419z M131.499,160.704l15.714,11.024l9.04-10.375l-21.162-10.778L131.499,160.704
	z M99.046,156.459l10.273,7.563l5.03-9.492l-10.331-5.283L99.046,156.459z M207.65,156.639l18.808,15.034l8.259-14.701
	l-12.246-10.328L207.65,156.639z M36.113,148.375l32.481,41.352l3.119-4.521l-33.401-40.829L36.113,148.375z M117.501,153.54
	l11.912,6.097l3.591-10.123l-10.529-5.364L117.501,153.54z M164.236,160.211l15.422,7.854l20.596-13.97l-29.122-11.641
	L164.236,160.211z M105.347,147.319l10.088,5.164l4.972-9.385l-8.994-4.583L105.347,147.319z M40.724,139.993l33.732,41.233
	l4.872-7.072L42.02,137.636L40.724,139.993z M52.618,144.759l16.362,16.02l7.474-10.41l-18.919-12.813L52.618,144.759z
	 M82.894,145.385l11.089,7.507l5.318-7.715l-9.462-9.462L82.894,145.385z M185.869,145.847l16.703,6.675l13.716-9.308
	l-25.417-10.019L185.869,145.847z M136.661,146.069l22.034,11.221l6.689-17.225l-23.292-9.31L136.661,146.069z M43.182,135.524
	l7.749,7.586l4.685-6.859l-9.35-6.331L43.182,135.524z M171.973,140.292l11.74,4.693l4.999-12.642l-11.843-4.666L171.973,140.292z
	 M91.208,133.805l9.432,9.429l5.484-7.952l-10.365-7.811L91.208,133.805z M124.539,139.991l10.032,5.109l5.362-15.112l-9.984-3.986
	L124.539,139.991z M61.897,131.161l19.074,12.919l7.218-10.053l-19.742-12.463L61.897,131.161z M225.854,143.423l11.404,9.621
	l14.725-22.065l-13.246-9.932L225.854,143.423z M114.333,134.792l8.126,4.139l5.464-14.136l-7.118-4.556L114.333,134.792z
	 M142.867,128.66l23.356,9.335l4.888-12.588l-23.763-9.365L142.867,128.66z M50.164,123.21l9.813,6.648l6.507-9.537l-10.709-6.761
	L50.164,123.21z M212.625,136.78l8.08,3.184l12.71-22.081l-15.007-5.501L212.625,136.78z M69.757,119.646l19.788,12.493l4.357-6.067
	L75.06,111.877L69.757,119.646z M130.786,123.834l9.923,3.965l4.475-12.609l-9.589-3.779L130.786,123.834z M98.017,123.359
	l10.954,8.252l6.563-14.743l-11.761-7.521L98.017,123.359z M121.762,118.097l7.02,4.488l4.651-12.026l-7.076-2.79L121.762,118.097z
	 M192.65,128.906l17.791,7.011l5.771-24.341l-14.594-5.354L192.65,128.906z M56.944,111.552l10.85,6.851l5.409-7.925l-10.871-8.188
	L56.944,111.552z M178.551,123.351l11.941,4.706l8.949-22.632l-12.192-4.469L178.551,123.351z M104.67,107.163l11.816,7.561
	l4.266-9.582l-12.095-7.681L104.67,107.163z M77.505,107.909L96.1,121.914l5.687-13.843L83.59,96.432L77.505,107.909z
	 M147.644,111.167l25.149,9.911l8.643-22.257l-24.482-8.977L147.644,111.167z M242.092,113.887l14.193,10.643l17.783-26.654
	l-23.592-9.722L242.092,113.887z M64.68,98.248l10.947,8.246l6-11.319l-11.05-7.063L64.68,98.248z M109.271,92.05l13.493,8.568
	l3.06-6.881l-13.439-7.688L109.271,92.05z M84.68,94.375l18.001,11.514l3.986-9.694l-17.17-10.901L84.68,94.375z M128.247,103.523
	l17.233,6.793l9.289-21.271l-17.261-6.33L128.247,103.523z M221.43,105.246l15.157,5.556l8.062-24.795l-9.058-3.333L221.43,105.246z
	 M71.748,86.1l10.97,7.019l4.81-9.075l-10.651-6.765L71.748,86.1z M91.907,81.026l15.396,9.777l3.066-5.908l-15.468-8.852
	L91.907,81.026z M204.393,98.998l14.81,5.43l14.164-22.575l-19.371-7.139L204.393,98.998z M113.456,83.99l13.318,7.619l5.018-11.275
	l-12.818-6.979L113.456,83.99z M190.055,93.738l12.157,4.459l9.603-24.284l-12.303-4.531L190.055,93.738z M78.992,72.827
	l10.957,6.958l2.938-4.892l-11.213-6.416L78.992,72.827z M96.097,74.056l15.341,8.777l5.495-10.591l-14.881-8.101L96.097,74.056z
	 M172.567,87.327l11.667,4.28l9.597-24.701l-10.396-4.467L172.567,87.327z M159.881,82.675l10.503,3.853l10.918-25.004
	l-10.261-4.406L159.881,82.675z M82.895,66.501l11.187,6.4l5.93-9.87l-11.213-6.105L82.895,66.501z M140.661,75.627l17.038,6.248
	l11.208-25.678l-16.451-7.068L140.661,75.627z M122.756,66.6l12.191,6.64l11.819-26.556L135.58,41.88L122.756,66.6z M106.103,57.535
	l14.615,7.955l12.727-24.529l-13.816-5.938L106.103,57.535z M92.9,50.346l11.162,6.078l13.414-22.327l-11.506-4.943L92.9,50.346z"/>
<polygon fill="#231F20" points="126.356,275.689 150.409,305.469 145.702,309.336 121.731,279.486 "/>
<path opacity="0.25" fill="#EB0037" enable-background="new    " d="M25.191,150.439l101.441,125.59l1.431-4.295L28.385,144.863
	L25.191,150.439z M127.834,277.52l20.446,25.316l2.129-2.656l-21.164-26.938L127.834,277.52z M149.276,304.066l2.116-2.637
	l14.834,18.879l-1.986,2.283L149.276,304.066z"/>
<path opacity="0.25" fill="#EB0037" enable-background="new    " d="M168.272,301.866l-5.532,7.556l6.152,7.815l11.637-13.397
	L168.272,301.866z M156.195,301.096l5.052,6.436l4.45-6.078l-8.667-1.396L156.195,301.096z M158.7,297.973l8.535,1.377l7.379-10.086
	l2.982-4.072l-5.141-4.356L158.7,297.973z M205.221,251.373l-35.411,48.389l12.51,2.014l34.801-40.063L205.221,251.373z
	 M231.348,208.066l23.041-34.501l-14.861-12.533l-20.84,37.449L231.348,208.066z M37.133,141.706l7.209-13.089l-4.784-3.237
	l-9.077,15.829l4.073,5.181L37.133,141.706z M85.041,46.068l5.975,3.254l9.06-15.032l4.968-8.06l20,8.593l75.86,32.596
	l50.691,18.671l72.387,30.365l-36.549,31.433l12.564,9.424l37.251-47.917l-75.054-26.578l-30.272-12.561l-15.717-7.071
	l-15.539-7.457l-15.354-7.833l-15.155-8.21l-14.952-8.576l-14.735-8.94l-14.513-9.298l-14.279-9.651L85.041,46.068z M43.406,118.669
	l4.829,3.246l38.784-65.961l-5.829-3.173L43.406,118.669z M255.998,174.923l-46.223,70.155l12.453,10.817l52.016-65.582l0.059,0.051
	l20.943-26.94l-13.823-10.369L255.998,174.923z M242.032,157.071l15.733,13.271l21.756-18.711l-22.588-16.938L242.032,157.071z
	 M198.3,235.111l9.483,8.24l20.976-31.408l-12.356-9.356L198.3,235.111z M178.055,284.566l25.404-34.721l-9.027-7.842
	l-21.479,38.235L178.055,284.566z M261.184,128.204l18.53-27.827l39.959,16.719l-34.144,29.366L261.184,128.204z"/>
<path opacity="0.25" fill="#EB0037" enable-background="new    " d="M122.839,332.896l8.307-10.137l-30.199-28.334l-3.315,13.264
	L122.839,332.896z M100.305,287.422l5.422-21.687l-2.482-3.088l-15.166,13.297L100.305,287.422z M46.324,236.174l13.802-19.578
	l-7.098-8.648l-14.155,20.076L46.324,236.174z M29.864,202.18l1.299,1.158l0.78,1.195l11.482,13.01l8.078-11.457l-29.909-36.451
	l-7.892,14.228l-1.452,2.613L29.864,202.18z M76.612,286l6.14,6.811l12.965,12.967l3.29-13.168l-14.458-13.567L76.612,286z
	 M32.499,237.068l42.561,47.207l7.88-6.91l-44.523-48.69L32.499,237.068z M137.724,347.781l9.956-9.508l-14.85-13.932l-8.381,10.166
	L137.724,347.781z M156.921,329.484l-49.369-61.475l-5.308,21.229l48.833,45.83L156.921,329.484z M63.022,220.547L51.81,236.451
	l33.048,36.145l10.76-9.434L63.022,220.547z M103.145,256.557l-37.001-45.809l-2.288,3.246l35.261,46.098L103.145,256.557z
	 M24.017,165.268l2.194-3.958l38.313,47.437l-2.233,3.168L24.017,165.268z"/>
<path fill="#EB0037" d="M141.45,277.363l12.799,16.265l11.895-14.818l-17.355-13.322L141.45,277.363z M131.891,265.215l9.052,11.502
	l7.228-11.703l-12.937-9.934L131.891,265.215z M151.241,261.514l17.588,13.506l10.192-18.145l-17.462-12.07L151.241,261.514z
	 M116.228,245.313l14.504,18.429l3.128-9.396l-15.391-16.141L116.228,245.313z M137.425,250.904l11.966,9.188l10.258-16.609
	l-15.058-14.315L137.425,250.904z M162.783,242.824l17.268,11.942l9.537-16.973l-15.423-13.396L162.783,242.824z M120.11,233.189
	l12.407,13.019l7.093-21.281l-13.247-11.641L120.11,233.189z M145.394,226.758l15.496,14.717l11.498-18.619l-16.527-14.354
	L145.394,226.758z M127.702,211.385l12.933,11.393l10.528-18.342l-14.764-10.869L127.702,211.385z"/>
</svg>
