<?xml version="1.0" encoding="utf-8"?>
<!-- Generator: Adobe Illustrator 23.0.3, SVG Export Plug-In . SVG Version: 6.00 Build 0)  -->
<svg version="1.1" id="Layer_1" xmlns="http://www.w3.org/2000/svg" xmlns:xlink="http://www.w3.org/1999/xlink" x="0px" y="0px"
	 viewBox="0 0 160 160" style="enable-background:new 0 0 160 160;" xml:space="preserve">
<style type="text/css">
	.st0{clip-path:url(#SVGID_2_);fill:#FFFFFF;}
</style>
<g>
	<g>
		<defs>
			<rect id="SVGID_1_" y="0" width="160" height="160"/>
		</defs>
		<clipPath id="SVGID_2_">
			<use xlink:href="#SVGID_1_"  style="overflow:visible;"/>
		</clipPath>
		<path class="st0" d="M71.6,150.2l7.7,9.8l7.2-9L76,143L71.6,150.2z M65.8,142.8l5.5,7l4.4-7.1l-7.8-6L65.8,142.8z M77.5,140.6
			l10.6,8.2l6.2-11l-10.6-7.3L77.5,140.6z M56.3,130.8l8.8,11.1l1.9-5.7l-9.3-9.8L56.3,130.8z M69.2,134.2l7.2,5.6l6.2-10l-9.1-8.7
			L69.2,134.2z M84.5,129.3l10.5,7.2l5.8-10.3l-9.3-8.1L84.5,129.3z M58.7,123.4l7.5,7.9l4.3-12.9l-8-7L58.7,123.4z M40.9,114.2
			l12,15.2l1.9-6l-11.5-12.1L40.9,114.2z M74,119.5l9.4,8.9l7-11.3l-10-8.7L74,119.5z M93.9,114.1l9.2,8l4.8-8.6l-9.1-7.4
			L93.9,114.1z M45.7,109.8l10.1,10.6l3.6-11.3l-8.7-5.3L45.7,109.8z M63.3,110.2l7.8,6.9l6.4-11.1l-8.9-6.6L63.3,110.2z
			 M83.1,104.7l9.7,8.4l4.9-8l-9.4-7.6L83.1,104.7z M99.6,104.8l9,7.3l5.3-9.5l-8.8-6.7L99.6,104.8z M27.8,97.5l12.8,16.2l2.3-2.9
			L29.7,94.8L27.8,97.5z M51.5,102.6l8.8,5.4l5.2-10.7l-6.1-4.5L51.5,102.6z M33.5,95l11.2,13.7l4.7-5.8L36.7,90.4L33.5,95z
			 M71.6,95.9l8.6,6.3l5.2-7.1l-8.1-5.7L71.6,95.9z M89.2,96.4l9.3,7.6l5.5-8.9L95,88.3L89.2,96.4z M106.9,93.8l8.4,6.4l7.1-12.6
			l-5.9-4.7L106.9,93.8z M78.2,88.4l8,5.6l6-8.2L84,81.7L78.2,88.4z M62.2,89l6.4,4.7l5.6-6.4L65.1,81L62.2,89z M37.5,89.2
			l12.8,12.5l8-9.8l-15-11.1L37.5,89.2z M97.5,86.7l8.2,6.2l9.7-11l-5-4L97.5,86.7z M53.3,82.4l7.7,5.7l2.8-7.9l-7.4-3.8L53.3,82.4z
			 M28.8,80.6l6.1,5.9l5.4-7.8l-6.8-4.6L28.8,80.6z M65.6,79.6l9.5,6.7l5.5-6.3l-12.8-6.5L65.6,79.6z M46,77l6.2,4.6l3-5.7L49,72.7
			L46,77z M111.7,77.1l11.4,9.1l5-8.9l-7.4-6.3L111.7,77.1z M7.9,72.1l19.7,25l1.9-2.7L9.2,69.7L7.9,72.1z M57.1,75.2l7.2,3.7
			l2.2-6.1l-6.4-3.2L57.1,75.2z M85.4,79.3l9.3,4.8l12.5-8.4l-17.6-7L85.4,79.3z M49.8,71.5l6.1,3.1l3-5.7l-5.4-2.8L49.8,71.5z
			 M10.7,67.1L31.1,92l2.9-4.3L11.5,65.6L10.7,67.1z M17.9,69.9l9.9,9.7l4.5-6.3l-11.4-7.8L17.9,69.9z M36.2,70.3l6.7,4.5l3.2-4.7
			l-5.7-5.7L36.2,70.3z M98.5,70.6l10.1,4l8.3-5.6l-15.4-6.1L98.5,70.6z M68.7,70.7L82,77.5l4-10.4L72,61.5L68.7,70.7z M12.2,64.4
			l4.7,4.6l2.8-4.2L14,61L12.2,64.4z M90.1,67.2l7.1,2.8l3-7.6L93,59.6L90.1,67.2z M41.2,63.3l5.7,5.7l3.3-4.8L44,59.5L41.2,63.3z
			 M61.4,67.1l6.1,3.1l3.2-9.1l-6-2.4L61.4,67.1z M23.5,61.7L35,69.5l4.4-6.1l-11.9-7.5L23.5,61.7z M122.7,69.1l6.9,5.8l8.9-13.3
			l-8-6L122.7,69.1z M55.2,63.9l4.9,2.5l3.3-8.6l-4.3-2.8L55.2,63.9z M72.5,60.2l14.1,5.6l3-7.6l-14.4-5.7L72.5,60.2z M16.4,56.9
			l5.9,4l3.9-5.8l-6.5-4.1L16.4,56.9z M114.7,65.1l4.9,1.9l7.7-13.4l-9.1-3.3L114.7,65.1z M28.2,54.7l12,7.6l2.6-3.7L31.4,50
			L28.2,54.7z M65.2,57.3l6,2.4l2.7-7.6l-5.8-2.3L65.2,57.3z M45.3,57l6.6,5l4-8.9l-7.1-4.5L45.3,57z M59.7,53.8l4.2,2.7l2.8-7.3
			l-4.3-1.7L59.7,53.8z M102.6,60.3l10.8,4.2l3.5-14.7l-8.8-3.2L102.6,60.3z M20.5,49.8L27,54l3.3-4.8l-6.6-5L20.5,49.8z M94.1,57
			l7.2,2.8l5.4-13.7l-7.4-2.7L94.1,57z M49.4,47.2l7.1,4.6l2.6-5.8l-7.3-4.6L49.4,47.2z M32.9,47.6l11.2,8.5l3.4-8.4l-11-7
			L32.9,47.6z M75.4,49.6l15.2,6l5.2-13.5L81,36.7L75.4,49.6z M132.5,51.3l8.6,6.4l10.8-16.1l-14.3-5.9L132.5,51.3z M25.2,41.8
			l6.6,5l3.6-6.8l-6.7-4.3L25.2,41.8z M52.1,38.1l8.2,5.2l1.9-4.2L54,34.4L52.1,38.1z M37.3,39.5l10.9,7l2.4-5.9L40.2,34L37.3,39.5z
			 M63.6,45L74,49.1l5.6-12.9l-10.4-3.8L63.6,45z M120,46l9.2,3.4l4.9-15l-5.5-2L120,46z M29.4,34.5l6.6,4.2l2.9-5.5l-6.4-4.1
			L29.4,34.5z M41.6,31.4l9.3,5.9l1.9-3.6l-9.4-5.4L41.6,31.4z M109.7,42.3l9,3.3l8.6-13.7l-11.7-4.3L109.7,42.3z M54.7,33.2
			l8.1,4.6l3-6.8L58,26.7L54.7,33.2z M101,39.1l7.4,2.7l5.8-14.7l-7.4-2.7L101,39.1z M33.8,26.4l6.6,4.2l1.8-3l-6.8-3.9L33.8,26.4z
			 M44.2,27.2l9.3,5.3l3.3-6.4l-9-4.9L44.2,27.2z M90.4,35.2l7.1,2.6l5.8-14.9L97,20.1L90.4,35.2z M82.8,32.4l6.4,2.3l6.6-15.1
			l-6.2-2.7L82.8,32.4z M36.2,22.6l6.8,3.9l3.6-6l-6.8-3.7L36.2,22.6z M71.1,28.1l10.3,3.8l6.8-15.5l-10-4.3L71.1,28.1z M60.3,22.7
			l7.4,4l7.2-16.1l-6.8-2.9L60.3,22.7z M50.2,17.2l8.8,4.8l7.7-14.8l-8.4-3.6L50.2,17.2z M50.1,0l-7.9,12.8l6.8,3.7L57.1,3L50.1,0z"
			/>
	</g>
</g>
</svg>
