<?xml version="1.0" encoding="utf-8"?>
<!-- Generator: Adobe Illustrator 14.0.0, SVG Export Plug-In . SVG Version: 6.00 Build 43363)  -->
<!DOCTYPE svg PUBLIC "-//W3C//DTD SVG 1.1//EN" "http://www.w3.org/Graphics/SVG/1.1/DTD/svg11.dtd">
<svg version="1.1" id="Layer_1" xmlns="http://www.w3.org/2000/svg" xmlns:xlink="http://www.w3.org/1999/xlink" x="0px" y="0px"
	 width="325px" height="275px" viewBox="0 0 325 275" enable-background="new 0 0 325 275" xml:space="preserve">
<g>
	<defs>
		<rect id="SVGID_1_" x="0" width="325" height="275"/>
	</defs>
	<clipPath id="SVGID_2_">
		<use xlink:href="#SVGID_1_"  overflow="visible"/>
	</clipPath>
	<g clip-path="url(#SVGID_2_)">
		<path fill="none" stroke="#EB0037" stroke-width="0.25" stroke-linejoin="round" d="M24.014,185.941l2.75-0.652l6.387-1.478
			l8.707-5.802 M41.857,178.01l3.154-2.102l7.451-6.348l0.853-3.596 M53.315,165.965l0.692-2.914 M54.008,163.051l-0.314-4.855
			l1.197-4.088l-1.511-4.856l1.338-3.546l0.202-2.667l1.033-0.769 M54.008,163.051l2.687,0.188l0.513-0.267l0.633-0.046l0.339,0.196
			l0.279,0.528l0.183,0.851l0.323,0.229l0.245,0.031l0.344-0.132l0.251-0.121l0.325-0.497l0.257-0.259l0.508-0.186l0.192-0.11
			l0.315-0.061l0.346,0.034l0.332,0.087l0.411,0.062l0.746,0.312l0.874,0.183l0.631,0.164l0.278-0.086l0.528-0.046l0.196-0.08
			l0.613-0.169l0.518-0.121l1.17,0.053l1.634,0.114l2.222-0.363l1.498-0.256l0.346,0.009l0.313,0.09l1.053,0.487l0.811,0.333
			 M55.953,142.27l0.979-0.725l2.708-0.057l3.549-1.658l0.5-0.682 M63.686,139.148l-0.18-1.377l0.991-2.742l0.142-0.608l0.313,0.103
			l0.288,0.09l0.19,0.051l0.488,0.027l0.652,0.051l0.117-0.315l-0.306-0.085l0.195-0.513l0.098-0.326l0.249-0.614l0.482-0.72
			l0.558-0.838l0.385-0.224l0.117,0.209l0.567-0.022l-0.285-0.484l-0.07-0.354l-0.132-0.993l-0.179-3.283l-0.012-0.544l0.073-0.449
			l0.099-0.345l0.173-0.662l0.362-0.922l0.354-0.885 M67.16,75.874l-0.108,2.971l0.354,0.968l0.118,1.435l0.177,1.17l0.055,0.432
			l0.092,0.711l0.501,0.761l0.54,0.527l0.621,0.856l0.618,0.63l0.545,0.715l0.271,0.365l0.179,1.068l0.284,0.658l0.33,0.95
			l0.076,0.686 M69.416,122.37l0.17-0.415L69.828,122l0.59,0.165l0.863,0.068l0.559,0.128l0.425-0.104l0.345-0.158l0.926,0.096
			l0.188,0.008l2.395-0.234l0.601,0.049h0.438l0.461,0.174l0.089-0.222l3.136,1.306l0.352,0.119l0.154-0.261l-0.289-0.702
			l-0.058-0.403l-0.024-0.506l-0.07-0.295l-0.185-0.249l-0.238-0.154l0.092-0.666 M71.813,90.778l0.209,0.703l0.284,0.513
			l0.081,0.264l-0.004,0.293l-0.038,0.645l-0.009,0.576l0.053,0.491l0.103,0.2 M72.491,94.462l0.106,0.205l0.166,0.495l0.135,0.359
			l0.139,0.261l0.229,0.278l0.578,0.433l3.241,2.576 M81.234,165.661l-2.206-0.603l-2.285-0.633l-0.714-0.225l-0.109-0.003
			 M77.082,99.069l4.647,3.695l1.313,0.954l0.787,0.493l0.775,0.25l1.016,0.2l1.551,0.112l4.392,0.132 M80.575,120.161l0.823,0.667
			l0.237,0.135l0.354,0.137l0.227,0.073l0.33,0.037l0.524,0.009l0.674,0.033l1.654-0.075l1.022-0.126l0.334-0.088l0.98-0.495
			l0.423-0.151l0.518-0.168l0.571-0.104L89.564,120l0.19-0.017l0.667-0.071l0.332-0.033l0.222,0.003l0.289,0.017l0.528-0.005
			l0.653,0.069l0.357,0.03h0.339l0.392-0.025l0.854-0.563l0.369-0.291l0.282-0.172l0.4-0.097l0.434,0.001l0.527,0.191l0.15-0.365
			 M81.234,165.661l2.117,0.596l0.321,0.095l0.722-0.119l0.396,0.049l0.905,0.089l0.664,0.075l0.396-0.281l0.432-0.294l0.393-0.386
			l0.422,0.266l0.167,0.34l0.445,0.024l0.42-0.081l0.786-0.178l0.604-0.091l0.663-0.124l1.346-0.226l2.688-0.571 M97.068,116.12
			l-0.341-0.068l-0.653-0.219l-1.855-0.889l-0.023-0.401l-0.209-0.766l-0.35-0.511l-0.282-0.292l-0.377-0.258l-0.308-0.152
			l-0.224-0.071l0.131-0.715l0.449-1.956l-1.475-4.392l0.01-0.376l0.005-0.148 M91.566,104.905l13.972,0.49 M95.126,164.846
			l0.188,0.093l1.201-0.304l3.564-1.145l0.293,0.378l0.274-0.266l3.59,1.124 M96.549,118.673l0.288-1.533l0.231-1.021
			 M109.644,165.892l-0.206-0.161l-0.242-0.209l-0.241,0.191l-0.446-0.303l-0.453,0.332l-3.815-1.018 M105.538,105.395l1.347,0.069
			l5.896,0.403l0.285,0.125l0.621,0.625l3.027,3.529l0.835,0.641l0.12,0.573l0.007,0.446l0.712,1.225 M105.538,105.395l4.043-7.103
			l0.296-0.197l3.228-1.203l1.866-0.394 M114.249,166.079l-3.932-0.116l-0.268,0.045l-0.406-0.116 M110.324,114.897l0.621,2.829
			 M118.387,113.031l-0.252,0.116l-0.266,0.105l-3.438,0.793l-4.107,0.851 M110.945,117.726l2.032-0.385l-0.092,0.622l-0.229,0.24
			l0.01,0.207l-1.505,0.524l1.638,7.072l0.367,0.218l0.568-0.704l-0.154-0.222l-0.025-0.255l0.058-0.458l0.052-0.242l0.104-0.297
			l0.133-0.257l0.226-0.242l0.215-0.168l0.229-0.124l0.487-0.168l0.374-0.059l0.374-0.021l0.318,0.046l0.307,0.101l0.3,0.151
			l0.373,0.229l0.41,0.342l0.43,0.458l0.238,0.297l0.201,0.341l0.156,0.435l0.049,0.343l-0.01,0.336l-0.086,0.438l-0.096,0.346
			l-0.008,0.271l0.005,0.321l0.092,0.235l0.069,0.209l0.142,0.247l0.177,0.185l0.193,0.2l0.465,0.307l0.252,0.093l0.332,0.031
			l0.394-0.031l0.117-0.031 M114.249,166.079l0.405,0.003l3.245,1.854l0.559-0.893l0.632,0.322l0.31-0.432l1.464-0.312l0.787-0.854
			 M121.964,157.768l-1.847,0.205l-0.051,0.361l-2.138-0.025l-3.552-0.055l-0.089,5.182l-0.022,0.368l-0.019,2.275 M114.966,96.499
			l0.716-0.185l0.271-0.038l0.297-0.094l0.408-0.21l0.225-0.202l0.177-0.244l0.117-0.284l0.094-0.325l1.911,0.178l0.384,0.366
			l2.51-2.112l5.533,1.823l2-0.013l1.53,0.039l0.189,0.02l1.059,0.099l0.142,1.036l2.004-0.515l0.261,2.317l0.658-0.079
			 M123.926,137.736l-0.461-0.136l-0.236-0.015l-0.308,0.057l-0.117-0.238l-0.116-0.365l-0.207,0.046l-0.346,0.071l-0.227,0.035
			l-0.561-0.037l-0.281-0.172l-0.473-0.363l-0.074-0.393l0.359-0.931l-0.244-0.321l-0.367-0.17l-1.594-0.851l0.473-0.218
			l0.953-0.486l0.23-0.158l0.193-0.449l-0.223-0.069l-0.727-0.372l-0.267-0.173l-0.177-0.279l2.211-0.212l0.103-0.326
			 M121.445,131.213l0.137-0.442l-0.361-0.322l-0.598-1.538 M121.65,165.768l1.025,0.705l0.168,0.676l2.695,2.813l1.344,1.854
			l-0.129,0.234l0.209,0.121l0.193,0.103l0.3-0.015l-0.014,1.375l0.856,0.106l0.499-0.125l0.269-0.155l0.311-0.021l0.301,0.472
			l0.102,0.371l-0.006,0.209l0.824,0.022 M121.938,140.92l0.892,0.602l0.023,0.384l-0.431,1.192l-0.327,1.398l0.047,1.045
			l-0.158,1.717l-0.021,0.927l0.229,0.263l-0.271,0.234l-0.02,0.523l0.105,1.104l-0.02,1.677l-0.013,2.524l0.023,1.577l-0.005,0.206
			l-0.021,0.925l-0.004,0.254 M123.926,137.736l-0.835,1.338l-1.156,1.846 M121.971,157.473l-0.007,0.295 M136.632,142.359
			l-2.913-0.697l-0.247-0.124l-4.163-1.683l-3.273-1.235l-2.109-0.886 M124.731,207.299l-0.195,0.012l0.215-0.722l-0.043-0.692
			l-0.188-0.498l1.277-0.786 M125.799,204.612l1.335-0.665l0.829-0.468l2.301-1.259l0.438-0.262l1.253-0.762l0.609-0.541
			l1.444-0.747l1.83-3.796l0.3-0.643l0.785-0.501l0.494-0.388l0.326-0.339 M135.287,81.799l-8.547-7.5 M126.74,74.299l1.664-0.468
			l1.135-0.15l1.673-0.033l0.735-0.073l0.808-0.171 M130.598,174.512l0.257,0.566l0.247,0.806l1.16,3.089l0.298,0.836l0.362,1.141
			l0.598,1.656l0.06,0.158 M132.755,73.404l0.478-0.649l1.131-1.682l0.146-0.188l1.43-1.836l0.208-0.273l0.356-0.476l0.873-1.14
			l2.075-5.123 M133.716,183.113l1.954,5.514l2.076,5.616 M145.829,90.553l-0.673-0.663l0.18-0.254l-2.372-2.101l-0.367,0.204
			l-1.198-0.354l-6.11-5.585 M135.448,98.075l2.063-1.8l2.668-0.077l0.746-4.057l1.188-0.209l1.437-0.874l1.497,0.225l0.402-0.332
			 M139.543,61.831l0.29-0.628l0.039-2.605l-0.153-1.348l-0.413-1.286l-0.727-1.698l-1.313-3.154l-0.762-1.458l-0.997-1.727
			 M137.788,152.659l0.992-0.136l0.063-1.963l-0.274-0.016l0.516-0.973l0.397-0.216l-0.011-0.846l0.476-0.673l0.042-0.223
			l-2.469-0.772l-1.279-0.449l0.207-0.475l-0.152-0.479l0.143-2.007l0.492-0.658l0.021-0.373l-0.314-0.043 M140.52,135.563
			l-0.241,0.694l-0.224,0.622l-0.16,0.456l-0.618,1.734l-0.56-0.336l-0.357,0.202l-0.154,0.213l-0.616,0.97l-0.298,1.376
			l-0.255,0.359l-0.404,0.508 M153.853,151.937l-1.089,0.658l-1.293,0.019l-0.189,0.203l-0.392,0.701l-2.861-0.052l0.018-1.408
			l-1.45-0.048l-2.189,0.023l-0.065,0.729l-0.288,0.043l-0.297-0.067l-3.648-0.076l-2.322-0.004 M139.448,62.038l0.095-0.206
			 M163.877,134.88l-0.265,0.586l-0.009,0.48l-0.125,0.354l-0.141,0.244l-0.276,0.356l-0.25,0.246l-0.29,0.221l-0.339,0.164
			l-0.325,0.121l-0.373,0.069l-0.359,0.015l-0.407-0.03l-0.261-0.087l-0.358-0.159l-0.56-0.258l-0.186,0.368l-0.393,0.176
			l-0.277,0.596l-1.228-0.563l-0.304,0.603l-1.115-0.602l-0.821-1.586l-0.909,0.595l-1.207-1.527l-0.355,0.335l-0.318-0.253
			l-0.557-0.354l-0.416-0.218l-0.731-0.442l-0.147,0.303l-0.319,0.706l-0.875,0.083l-1.338,0.133l-0.886,0.087l-0.893,0.089
			l-2.186,0.223l-3.037,0.275l-0.519-0.674 M145.448,90.952l0.27,0.291l-0.188,0.214l0.898,0.829l0.081,0.225l0.308,0.192
			l0.601,0.535l0.287,0.284l0.381,0.528l0.409,0.666l0.319,0.739l0.261,0.719l0.218,1.038l0.137,0.68 M145.448,90.952l0.381-0.399
			 M149.429,97.894l-0.013,0.614l0.009,0.462l-0.019,0.634l0.047,0.378l0.08,0.579l0.158,1.282l0.056,0.377l-0.041,0.378
			l-0.069,0.335l-0.139,0.419l-0.2,0.325l0.583-0.081l0.943,3.188l1.479,4.574 M150.416,202.518l0.324-0.608l2.148-0.862
			l0.296-1.212l-1.356-0.331l1.463-3.604l0.096-0.479 M163.877,134.88l-0.265,0.586l-0.009,0.48l-0.125,0.354l-0.141,0.244
			l-0.276,0.356l-0.25,0.246l-0.29,0.221l-0.339,0.164l-0.325,0.121l-0.373,0.069l-0.359,0.015l-0.407-0.03l-0.261-0.087
			l-0.358-0.159l-0.56-0.258l-0.186,0.368l-0.393,0.176l-0.277,0.596l-1.228-0.563l-0.304,0.603l-1.115-0.602l-0.821-1.586
			l-0.909,0.595l-1.207-1.527l-0.355,0.335l-0.318-0.253l-0.557-0.354 M152.297,111.359l0.417-0.167l0.917,3.151l0.375,1.267
			l0.389,0.299l-0.858,1.497l-0.157,0.893l-0.049,0.377l-0.155,0.725l0.789,0.238l1.139,0.317l0.736,0.229l1.261,0.574l0.445,0.229
			l0.273,0.163l1.049,0.786l0.829,0.577 M153.387,195.422l0.518-2.598l0.201-1.432l0.132-0.214l0.051-0.722l0.727-1.279l1.469-6.543
			l1.691-5.122 M161.147,170.324l-0.472-0.188l0.055-0.879l-0.174-2.471l-2.158,0.413l-1.518-10.042l-0.89,0.449l-1.985-0.311
			l-0.395-1.164l-0.107-1.791l0.189-2.065l0.163-0.34 M168.707,148.924l0.052,0.242l-0.224,0.047l-0.06-0.188l-0.224-0.229
			l-0.23-0.224l-0.363-0.157l-0.344-0.174l-3.979-2.125l-2.126-1.156l-0.579-0.273l-0.518-0.169l0.693,2.108l0.55,1.434l0.444,1.182
			l0.465,1.236l-0.197,0.126l-0.429,0.849l-1.278-0.433l-1.63-0.351l-4.268-0.916h-0.22l0.22,1.041l0.039,0.266l-0.45,0.756
			l-0.2,0.12 M158.176,177.513l0.15-0.439l0.396-0.017l1.577-3.371l0.764,0.074l0.744,0.025l0.73-0.022l0.254-0.082l-0.8-0.779
			l-1.94-1.166l0.375-0.975l0.826,0.183l-0.104-0.617 M163.877,134.88l-0.556-0.499l-1.455-1.376l-0.533-0.462l-0.222-0.174
			l0.301-0.451l0.238-0.522l0.729-1.925l0.555-1.378l-0.219-0.13l0.392-0.974l0.577-0.115l0.36-1.334l-0.491-0.25l-0.888-0.469
			l0.039-0.763l-0.34-0.041l-0.312-0.101l-0.821-0.425l-0.771-0.499l-0.762-0.477 M159.696,122.517l1.884-1.948l0.495,0.048
			l0.315-0.148l2.097-0.398l3.274-0.624l0.432,0.578l1.144-1.153l0.632-0.572l2.299,3.481l1.48-0.718l0.648-0.284l0.554,1.146
			l0.708,1.668l0.483,1.129l-0.312,0.888l0.227,0.073l0.563,0.178l2.204,0.688l0.28,0.092l0.676-0.066l2.57-0.427l1.216-0.133
			 M177.227,152.033l-0.962,1.196l-2.278-1.947l-1.133-0.887l-0.87-0.743l-1.08,1.17l-1.935-1.619l-0.262-0.281 M168.707,148.924
			l0.022-0.257l0.208-0.335l0.312-0.327l2.156-2.679l0.928-0.04l0.861-0.997l0.56-0.65l0.328-0.196l0.611-0.176l0.223,0.021
			 M174.917,143.287l0.307-0.027l0.68,0.145l1.351,0.427l0.589,0.19l1.185,0.758l0.398,0.073l0.497,0.243l-0.422,0.583l1.233,0.942
			l1.955,0.963l1.251,0.383l0.273,0.048l0.854,0.596l0.4,0.352l0.688,0.929l0.052,0.532l0.364,0.633l0.164-0.372l0.167-0.244
			l0.235-0.042l0.703,0.169l0.287,0.215l0.289,1.044 M181.392,112.732l-0.426,1.387l0.208,0.161l0.427,0.211l0.438,1.111
			l-0.677,0.499l-1.264,0.636l-0.514,0.391l-1.236,2.479l-1.976,0.675l0.638,1.281l0.317,0.414l0.729,0.556l1.205,0.645l1.665,0.357
			l0.895,0.451l0.575,0.438 M186.567,184.145l-0.513-0.422l-3.442-2.708l-2.311-1.896l-0.482-0.576l-0.419-0.659l-0.366-0.691
			l-0.249-0.614l-0.396-0.908l-0.323-0.75l-0.394-0.934l-0.69-1.338l-0.323-0.741 M176.661,171.904l3.056,0.066l3.654,0.169
			l1.5,0.076l0.088-0.331l0.212-0.611l0.072-0.208l0.058-0.241l0.11-0.341l0.391-0.556l0.264-0.391l0.232-0.557l0.171-0.341
			l0.118-0.376l0.015-0.544l-0.234-0.593l-0.624-0.884l-0.683-1.022l-1.104-1.537 M183.957,163.687l-1.293-2.144l-0.11-0.934
			l0.349-1.594l0.058-0.361l-0.597-0.718l-3.364-3.871l-1.769-2.032 M189.894,93.593l-0.212,1.357l-0.15,0.423l0.1,0.209l0.7,0.106
			l1.392,0.682l0.48,0.415l1.76,2.831l0.284,0.799l0.059,0.66l-0.007,0.433l-0.611,2.084l-1.841-0.684l-1.861-0.519l-0.284,0.153
			l-1.561,1.94l-0.209,0.075l-0.729,0.035l-0.156,0.238l0.317,0.753l-0.373,0.451l-2.701-0.09l-1.904-0.064l-0.518-0.361
			l-0.451-0.061l1.131,5.869 M182.547,111.33l-1.155,1.402 M183.931,136.573l-0.357,0.324l-0.385,0.554l-0.042,0.28l-0.274,0.495
			l-0.234,0.455l-0.284,1.083l-0.438,2.018l0.521,0.168l0.595,0.111l0.727,0.146l1.957,1.229l0.456,0.898l0.841,1.211l1.836,1.979
			l0.156,0.247l0.441,0.134l0.352,0.489l0.65,0.558l0.146,0.221l0.053,0.208l1.734,0.904l-0.215,0.593 M182.396,124.421l0.558,0.596
			l0.608,0.997 M183.563,126.018l0.416,0.577l0.254,0.573l0.202-0.071l0.692,1.727l0.327,1.327l0.63,0.307l-0.796-0.22l-0.286,1.069
			l0.173,0.91l0.074,0.394l0.104,0.563l-0.104,0.447l-0.084,0.306l-0.108,0.271l-0.124,0.197l-0.555,0.974l-0.418,0.705l0.337,0.169
			l-0.38,0.202l0.01,0.13 M189.112,186.136l-1.767-1.349l-0.778-0.643 M189.669,76.393l-0.427,1.209l-0.455,1.197l-0.729,0.057
			l-0.196,0.517l-0.479-0.141l-0.341,1.757l0.018,0.619v0.472l0.088,0.334l0.146,1.002l-0.17,1.83l0.08,0.301l-0.15,0.425
			l-0.056,0.642l0.107,0.212l-0.181,0.413l0.279,0.066l0.543,0.01l0.361,0.082l0.328-0.113l0.131,0.834l2.077,1.72 M188.416,151.823
			l1.058-0.738l0.423-0.336l0.389-0.183l0.842-0.064l0.248,0.038l0.791,0.337 M188.85,93.414l1.044,0.179 M190.644,89.836
			l-1.784,2.287l0.173,0.281l-0.018,0.323l-0.165,0.688 M205.436,196.178l-0.449-0.072l-1.213-0.184l-1.254-0.232l-1.837-0.663
			l-1.101-0.663l-2.973-2.321l-1.272-0.976l-2.185-1.709l-2.258-1.839l-1.782-1.383 M198.593,69.597l-7.354,4.75l-0.266,0.218
			l-0.887,1.001l-0.329,0.575l-0.088,0.252 M192.166,150.876l0.908,1.284l0.157,0.42l0.464,1.533 M193.695,154.114l1.06-0.13
			l0.592-0.013l1.816,0.638l0.035,0.012 M197.198,154.621l0.118,0.458l0.384,1.144l0.479,1.422l1.638,2.508l1.768-0.429l0.82-0.189
			l0.264-0.024l0.211,0.009l0.223,0.024l0.227,0.043l0.378,0.171l1.939,1.07l0.551-0.863l0.521,0.598l0.601,0.735l2.93,4.133
			l0.789-0.905l2.572-3.048l0.934-1.26l0.881,0.653l0.416,0.073l2.528,0.436 M203.648,214.582l-0.051-0.197l0.373-0.468
			l-0.073-0.308l0.15-0.246l0.946-1.043l0.65-0.965l0.32-0.524l0.129-0.235l0.197-0.459l0.27-1.027l0.229-1.054l-0.172-0.247
			l0.221-0.243l0.047-0.356l-0.178-0.259l0.152-0.31l0.407-0.771l-0.872-0.479l-0.095-0.248l0.356-0.751l-0.072-0.576l-0.043-0.499
			l-0.15-0.444l-0.01-0.603l-0.104-0.236l-0.176-0.294l-0.224-0.499l-0.166-0.315l-0.079-0.515l-0.214-0.262l-0.242-0.08
			l-0.309-0.535l-0.063-0.268l-0.137-0.429l0.272-0.519l0.338-0.773l0.325-1.049 M204.85,130.648l0.074-1.487l0.136-3.307
			l0.073-3.092l-0.128-2.711l-0.128-1.983l-0.08-1.049l-0.114-0.656l-0.693-1.411 M203.989,114.95l0.556-0.066l0.792-0.088
			l0.571-0.067l0.463-0.093l0.223-0.064l0.357-0.139l0.44-0.19l0.229-0.11l1.035-0.526l0.652-0.308l0.957-0.377l1.082-0.383
			l-3.324-12.559 M204.85,130.648l-0.021,0.401l2.826,0.124l0.276,0.015l1.447,0.097l0.619-0.067l0.313-0.054h0.237l0.319,0.041
			l0.392,0.051l0.407,0.059l0.321,0.051l0.224,0.068l0.19,0.088l0.208,0.133l0.212,0.169l0.216,0.214l0.148,0.202l0.156,0.284
			l0.075,0.213l0.078,0.293l0.04,0.236l0.016,0.246l-0.023,0.42l-0.003,0.08 M208.023,99.978l1.155-0.984l0.556-0.508l1.173-1.166
			l0.924-0.948l1.325-1.675l1.307-1.624l0.609-0.796l0.523-0.088 M213.521,134.008l-0.688-0.051l0.015,0.656l0.201,0.178
			l-0.035,0.689l0.054,1.083l0.21,1.237l-0.101,0.236l-0.212,0.134l-0.771,0.052l0.221,0.471l1.471,2.763l0.54,0.929l0.224-0.137
			l0.215-0.36l0.549,0.605l0.074,0.117 M215.489,142.61l0.944,1.543l0.152,0.604l0.143,0.967l0.182,0.596l0.152,0.39l0.102,0.258
			l0.033,0.205l1.661,9.18l1.376,2.092l0.308,2.679 M215.598,92.189l0.907-0.497l0.528-0.723l0.279-0.115l1.801-0.716l0.325-0.128
			l2.481-0.968l2.354-0.911l0.906-0.326l0.851-0.427l0.527-0.324l0.554-1.1l0.003-0.009 M218.368,161.379l-0.161-0.412l0.402-0.047
			l0.22,0.047l0.4,0.111l0.238,0.042h1.074 M220.545,161.12l0.799,0.034l0.797,0.16l0.512,0.092l0.604,0.019l1.682-0.071l1.07-0.393
			l0.104,0.189l0.563-0.119l0.191-0.166l0.12-0.203l0.4-0.334 M227.388,160.328l0.512-0.32l1.037-0.675l0.925-0.582l0.055,0.239
			l0.078-0.291l0.313-0.748l0.231-1.201l2.215-1.14l0.941,0.842l0.532-0.237l1.487-0.666 M235.715,155.549l2.102,1.62l0.938,0.782
			l0.372,0.295l0.823,0.664l0.325,0.322l0.478,0.334l0.381,0.425l0.544,0.483L242,160.71l0.685,0.546l0.62,0.441l0.477,0.022
			l1.942-0.025l-0.044,1.298l1.459,0.438l0.127-0.172 M150.416,202.518l1.398,4.104l1.491-0.477l0.865-0.184l0.79-0.038l0.541,0.109
			l2.029,0.969l1.468,0.979l0.68,0.211l-0.08,0.224"/>
		<polygon fill="none" stroke="#EB0037" stroke-linejoin="round" points="160.972,40.158 162.223,41.159 163.215,40.311 
			163.406,40.155 163.67,39.973 163.97,39.79 165.789,39.909 166.102,39.778 166.697,39.313 166.672,38.972 166.476,38.738 
			166.441,38.396 166.357,37.801 166.219,36.86 166.248,36.492 166.365,35.562 166.456,34.822 166.646,34.601 167.178,34.445 
			167.637,34.309 169.092,33.934 169.305,32.737 169.604,31.156 169.873,31 170.034,31.227 170.221,31.212 170.451,31.156 
			170.737,30.862 171.685,30.821 172.017,30.684 172.264,30.54 172.543,30.449 172.803,30.449 173.719,30.514 174.119,30.537 
			174.42,30.595 174.639,30.658 174.737,30.952 174.761,31.384 175.171,31.457 176.754,31.657 178.136,31.814 178.516,31.534 
			178.723,31.445 179.197,31.241 179.492,30.649 179.674,30.393 179.92,30.178 180.235,30.053 180.516,29.899 180.721,29.703 
			181.244,29.326 181.516,29.219 181.793,29.208 182.06,29.228 182.293,29.173 182.543,29.201 182.828,29.074 183.058,28.788 
			183.559,28.245 183.937,27.907 184.328,27.693 184.592,27.448 184.676,26.917 184.731,26.671 184.773,26.399 184.699,26.042 
			184.556,25.848 184.445,25.636 179.438,24.909 175.547,21.643 174.169,21.08 174.547,20.717 176.094,18.961 176.318,18.824 
			178.144,16.771 178.107,16.434 181.043,17.79 183.1,14.889 185.347,11.969 186.086,12.784 187.206,11.618 187.437,12.058 
			185.729,14.821 185.119,16.828 185.369,17.246 185.574,17.693 185.571,18.1 186.482,17.396 189.666,16.118 190.147,15.908 
			191.08,15.396 191.206,15.742 190.922,16.404 190.78,17.075 190.666,18.112 190.517,19.124 190.379,20.268 190.246,21.245 
			189.828,23.476 191.71,26.106 191.947,26.365 192.501,26.992 192.938,27.402 193.702,28.029 194.786,28.632 195.341,29.074 
			195.73,29.318 196.408,29.745 196.679,29.791 197.141,30.08 197.563,30.332 197.797,30.537 198.028,30.642 198.413,30.777 
			198.868,31.072 199.209,31.245 199.706,31.746 200.195,32.15 201.006,32.867 202.157,33.972 203.371,33.386 203.817,33.176 
			205.074,32.737 205.341,33.439 205.672,34.431 206.244,34.383 206.817,34.338 206.76,34.839 206.552,37 206.482,37.517 
			206.414,38.071 206.252,38.664 206.21,38.889 206.127,39.315 205.57,41.449 204.736,44.086 204.441,45.532 203.57,46.024 
			201.914,46.77 201.417,47.023 201.144,47.163 200.015,47.857 199.414,48.251 199.061,48.525 199.009,49.344 198.935,51.047 
			198.924,52.324 198.917,52.751 198.857,53.012 198.717,53.044 198.449,53.213 198.091,53.367 197.404,54.839 196.902,56.32 
			196.571,57.221 196.455,57.536 196.07,58.582 195.776,59.385 195.725,59.636 195.132,62.593 195.234,63.831 196.455,64.85 
			197.232,66.667 197.611,67.548 198.664,70.008 198.769,70.22 199.09,70.95 200.104,73.386 201.35,73.325 203.77,73.151 
			204.228,73.097 204.443,73.073 205.806,72.976 206.793,72.934 208.797,73.308 209.952,73.649 212.183,74.453 212.686,74.627 
			213.276,74.829 213.888,75.045 215.338,75.574 217.433,76.396 217.813,76.544 217.74,76.751 218.117,76.926 218.808,77.358 
			219.322,77.651 220.477,78.465 221.223,79.024 221.406,79.164 221.827,79.545 222.719,80.359 223.83,81.372 224.458,82.086 
			224.699,82.403 225.236,83.132 225.653,83.618 226.592,85.247 227.066,86.376 227.108,86.471 227.326,86.969 227.453,87.257 
			227.502,87.46 227.793,87.454 228.003,87.278 228.544,87.304 228.882,87.335 229.686,87.101 230.249,86.919 230.578,87.023 
			230.803,87.204 231.184,87.493 231.359,87.739 231.499,88.222 231.709,88.919 232.251,89.005 232.805,89.001 233.254,88.985 
			233.551,89.537 233.869,90.512 234.014,90.915 234.115,91.302 234.158,91.515 234.195,91.931 234.18,92.187 234.076,92.595 
			234.107,93.097 234.088,93.403 234.432,94.413 234.477,94.787 234.502,95.294 234.539,95.544 234.592,95.817 234.703,96.345 
			234.738,97.221 234.816,97.633 234.992,98.077 235.577,98.899 235.664,99.186 236.203,100.337 236.255,100.689 236.23,101.547 
			236.203,102.546 236.129,102.823 236.023,103.129 235.877,103.431 235.888,103.695 235.835,103.961 235.646,104.427 
			235.543,104.72 235.582,104.921 235.807,105.019 236.004,105.057 237.285,105.407 238.426,105.721 238.619,105.776 
			239.465,106.01 240.896,106.41 241.654,106.621 243.266,107.072 245.125,107.565 246.131,107.827 246.489,107.918 
			246.611,107.968 247.957,108.311 249.543,108.745 250.035,108.818 250.259,108.877 250.516,108.948 250.809,109 251.328,109.044 
			252.305,109.154 252.94,109.213 253.477,109.28 254.562,109.414 255.352,109.517 255.692,109.554 256.234,109.623 
			256.756,109.699 256.963,109.742 257.325,109.931 257.671,110.129 257.918,110.208 258.202,110.228 258.566,110.235 
			258.618,110.547 258.731,111.11 258.761,111.325 258.566,111.686 258.214,112.263 257.925,112.745 257.658,113.166 257.391,113.5 
			257.158,113.702 256.972,113.592 256.752,113.616 256.177,113.427 255.806,113.557 255.594,113.714 255.098,113.538 
			254.878,113.459 254.604,113.722 254.351,113.805 253.071,113.473 253.148,114.086 253.24,114.754 253.32,115.322 
			253.387,115.833 253.448,116.306 253.032,116.733 253.125,117.421 253.218,117.971 253.306,118.508 253.397,119.052 
			253.434,119.329 253.823,119.282 254.897,119.118 255.688,119.006 256.055,118.977 256.686,118.981 257.111,119.005 
			258.352,119.02 259.951,119.063 260.18,119.096 260.655,119.168 261.177,119.322 261.455,119.436 261.694,119.489 
			262.134,119.551 263.041,119.631 263.654,119.639 264.832,119.563 266.914,119.521 267.569,119.503 267.71,120.136 
			267.984,121.479 268.076,122.043 268.149,122.255 268.26,122.447 267.647,123.043 266.906,123.762 265.242,124.914 
			263.842,125.829 263.09,126.326 262.886,126.481 261.841,127.286 261.336,127.677 261.004,127.95 260.751,128.183 
			260.359,128.588 259.575,129.5 258.666,130.398 257.813,131.391 257.605,131.642 257.294,132.1 257.096,132.434 256.874,132.848 
			256.64,133.318 256.52,133.586 256.18,134.314 255.516,135.859 255.249,136.467 255.175,136.664 255.089,136.928 255.021,137.17 
			254.822,137.993 254.542,139.119 254.42,139.771 254.072,141.65 253.289,144.205 253.154,144.738 252.655,145.877 
			252.978,146.066 253.456,146.345 255.229,146.779 254.436,147.854 253.888,148.586 253.208,149.495 252.342,150.656 
			252.186,150.871 250.981,152.507 250.043,153.782 248.662,155.7 248.501,156.018 248.363,156.867 248.213,158.104 
			247.986,159.232 247.928,159.65 248.491,159.849 248.969,160.051 249.199,160.197 249.054,160.51 248.309,161.486 
			247.732,162.246 247.252,162.873 246.963,163.253 247.135,163.316 248.641,163.876 249.429,163.051 249.646,162.99 
			251.105,163.389 251.443,163.494 251.396,163.973 251.415,164.984 251.708,165.03 251.67,165.961 251.582,166.154 
			251.471,166.387 252.055,166.545 252.343,166.258 252.225,166.037 252.114,165.555 252.102,164.821 252.404,164.792 
			253.182,164.787 252.909,164.543 252.925,164.226 252.94,163.896 253.012,163.646 253.175,161.238 253.448,161.096 
			253.749,161.084 253.993,161.213 254.239,161.258 254.432,161.274 254.959,161.023 255.42,160.594 255.594,160.393 
			255.874,160.147 257.756,159.522 258.125,159.377 258.547,159.211 258.891,158.9 259.843,158.24 260.52,157.803 260.751,157.652 
			261.112,157.348 261.425,157.015 261.763,157.113 262.197,157.244 263.316,157.342 263.922,157.699 264.193,157.851 
			265.059,158.315 265.57,158.558 266.6,158.804 267.082,159.088 267.548,159.529 268.164,160.107 268.398,160.283 268.801,160.45 
			269.375,160.783 269.611,160.911 269.897,161.06 270.171,161.159 270.679,161.115 271.131,161.074 272.232,160.777 
			273.228,161.425 273.439,161.544 273.74,161.77 274.942,162.811 275.683,163.316 276.485,163.907 277.511,164.519 
			277.665,164.744 277.795,164.942 278.091,165.356 278.381,165.844 279.262,166.701 280.698,167.356 280.933,167.446 
			281.145,167.62 281.83,167.562 282.372,167.572 282.707,167.629 283.209,167.78 284.799,168.104 285.09,168.297 285.229,168.493 
			285.475,169.114 285.712,169.725 285.88,171.085 286.068,171.381 286.023,172.656 286.398,173.587 286.446,173.891 
			286.447,174.082 286.318,174.83 286.769,174.951 287.072,175.013 287.638,175.13 288.536,175.202 289.154,175.27 289.404,174.643 
			289.563,173.465 289.673,172.867 289.669,172.646 289.512,171.576 288.58,171.244 288.445,170.475 288.258,169.021 
			288.182,168.104 288,167.897 287.484,166.663 287.072,166.029 286.721,165.21 287.072,165.214 287.656,165.219 287.784,165.525 
			287.945,165.736 288.661,166.33 288.885,166.516 289.537,167.045 289.991,167.414 291.473,168.387 292.135,168.803 
			292.381,168.906 292.965,169.09 293.4,169.152 293.518,169.353 293.857,169.225 294.484,170.014 294.653,170.238 296.294,173.625 
			296.547,173.871 297.276,174.701 298.164,175.688 299.285,176.985 300.2,178.097 300.627,178.206 300.825,178.221 
			302.035,178.413 302.654,178.179 303.188,178.272 303.234,178.503 303.638,178.781 304.084,178.875 304.278,178.965 
			305.063,179.086 305.942,179.268 306.65,179.48 307.34,179.257 307.715,179.376 308.325,179.504 310.313,180.114 310.67,180.26 
			310.923,180.362 311.31,180.565 311.567,180.844 311.877,181.076 312.001,181.416 312.559,181.376 312.597,181.648 
			312.453,181.951 312.264,182.347 311.801,183.379 311.617,183.738 312.582,183.943 312.834,183.995 312.16,187.247 
			314.617,187.625 314.668,187.914 314.441,188.437 314.296,188.68 314.186,188.99 313.527,188.863 312.823,188.767 
			311.764,188.577 312.647,184.941 309.903,185.038 307.996,186.654 307.042,187.476 306.851,187.643 306.643,189.08 
			306.524,189.931 306.605,190.226 306.482,191.177 305.382,191.258 304.433,191.068 304.344,191.377 304.088,191.327 
			301.915,190.893 301.162,190.646 300.819,190.497 300.139,190.176 299.208,189.613 298.165,188.768 297.745,188.539 
			297.529,188.284 297.504,188.531 297.983,188.861 298.875,189.586 299.076,189.73 299.303,189.891 299.688,190.113 
			300.62,190.604 301.145,190.811 301.671,190.988 301.954,191.051 303.123,191.327 304.063,191.53 304.301,191.582 
			305.221,191.783 305.176,192.101 305.126,192.467 304.962,193.641 304.731,194.285 305.918,194.717 305.865,194.933 
			305.752,195.443 305.635,196.078 304.952,196.062 304.136,195.932 302.322,198.832 301.446,200.166 301.239,200.478 
			301.1,200.694 301.195,201.008 301.201,201.127 301.206,201.527 301.153,201.822 300.877,202.358 300.686,202.896 
			300.585,203.244 300.493,203.552 300.48,203.793 300.508,204.059 300.577,204.26 300.966,204.914 301.135,205.168 
			301.372,205.598 301.709,206.151 301.88,206.434 302.159,206.855 302.372,207.06 302.431,207.27 302.482,207.532 302.633,207.758 
			302.953,207.97 303.289,208.148 303.526,208.281 303.9,208.766 304.038,209.037 304.143,209.445 304.359,209.997 304.301,210.211 
			304.238,210.451 304.132,210.769 303.732,210.906 303.027,211.25 302.693,212.23 302.46,213.029 302.447,213.392 302.482,213.828 
			302.469,214.084 302.186,214.57 301.914,214.826 301.426,215.279 301.288,215.561 301.1,215.743 300.604,216 300.444,215.743 
			300.217,215.854 299.989,215.934 299.723,215.831 299.497,215.742 299.135,216.044 298.804,216.202 298.501,216.14 
			298.281,216.453 298.036,216.614 297.71,216.809 297.4,217.035 297,216.879 296.646,216.703 296.254,216.52 295.86,216.498 
			295.373,216.604 295.122,216.498 294.97,216.214 294.649,215.969 294.277,216.031 294.064,216.227 293.576,216.521 
			293.387,216.803 293.272,217.039 292.988,217.246 292.783,217.34 292.543,217.459 292.309,217.697 292.096,217.813 
			291.854,218.269 291.449,218.458 291.311,218.713 291.103,218.932 290.78,219.178 290.415,219.192 290.106,219.237 
			289.684,219.432 289.529,219.673 289.299,219.783 289.061,220.218 288.906,220.42 288.599,220.521 288.342,220.477 
			288.02,220.572 287.699,220.893 287.608,221.156 287.4,221.644 287.088,222.087 286.766,222.414 286.52,222.563 286.318,222.468 
			286.545,221.968 286.646,221.72 286.465,221.453 286.2,221.473 285.939,221.575 285.731,221.895 285.764,222.648 285.688,222.891 
			285.698,223.164 285.441,223.474 285.225,223.807 285.008,223.994 284.754,224.327 284.473,224.73 283.957,225.346 
			283.722,225.625 283.143,226.275 282.925,226.509 282.641,226.628 282.395,226.69 282.146,226.687 281.838,226.412 
			281.699,226.186 281.537,226.497 281.438,226.831 281.063,226.729 280.922,227.372 280.816,227.6 281.145,227.836 
			281.417,228.096 281.758,228.25 282.355,228.034 282.57,228.162 283.117,228.609 284.309,229.506 284.628,229.695 285.072,229.66 
			286.34,229.394 285.787,232.336 286.742,232.182 287.007,232.363 287.299,232.489 287.07,233.635 286.65,234.379 286.542,234.662 
			286.436,234.905 286.146,235.439 285.578,236.41 285.431,236.66 285.284,236.916 284.914,237.538 284.496,237.996 
			284.287,238.229 284.074,238.431 283.921,238.723 283.888,238.926 284.038,239.289 284.002,239.503 283.418,239.583 
			283.229,239.67 283.531,239.914 283.543,240.105 282.883,239.914 282.766,239.719 282.393,239.798 282.18,239.912 281.89,240.007 
			281.555,240.042 281.145,239.828 280.955,239.641 280.099,238.869 279.73,238.784 279.176,238.45 278.853,238.432 
			278.137,238.485 277.515,238.64 277.307,238.76 276.725,239.277 276.285,239.605 275.813,239.872 275.294,240.091 274.54,240.313 
			274.266,240.445 273.956,240.971 273.84,241.226 273.68,241.706 273.458,241.926 273.095,242.106 272.899,242.313 272.49,242.936 
			272.293,243.284 272.099,243.695 271.954,244.187 271.883,244.622 271.841,245.16 271.753,245.479 271.739,245.906 
			271.845,246.457 271.863,246.707 271.342,246.885 271.044,247.038 270.772,247.284 270.503,247.676 270.363,247.961 
			270.259,248.206 270.141,248.664 270.155,248.994 270.141,249.203 269.839,249.828 269.631,250.031 269.121,250.268 
			268.865,250.446 268.652,250.789 268.604,251.029 267.919,251.447 267.714,251.707 267.587,252.856 267.588,253.068 
			267.548,253.27 267.218,253.998 267.215,254.553 267.029,254.945 266.133,256.012 265.913,256.442 265.605,257.217 
			265.547,257.422 265.35,257.809 265.096,258.228 265.051,258.742 265.216,259.996 265.201,260.287 265.033,260.677 
			264.663,261.074 264.169,261.414 263.838,261.563 263.621,261.618 263.422,261.604 262.563,261.281 262.274,260.953 
			261.993,260.416 261.346,260.383 261.152,260.37 260.933,260.031 260.729,259.596 260.533,259.313 259.826,258.624 
			259.073,257.654 258.735,257.033 258.459,256.282 258.287,255.729 258.207,255.381 258.221,255.04 258.338,254.291 
			258.338,252.836 258.438,251.727 258.457,251.314 258.463,250.323 258.586,248.083 258.762,246.85 258.891,246.379 
			259.021,245.98 259.325,245.34 259.595,244.9 259.849,244.561 260.645,243.524 261.796,242.368 262.189,241.988 262.635,241.574 
			262.841,241.34 262.979,241.104 263.166,240.707 263.27,240.383 263.263,239.725 263.183,239.313 263.055,238.966 262.99,238.368 
			262.951,238.132 262.925,237.91 261.66,237.793 261.367,237.685 260.981,237.547 261.305,236.62 261.404,236.083 261.382,235.537 
			261.328,233.664 261.271,232.572 260.949,232.308 259.525,232.55 257.898,232.921 256.844,233.153 256.212,232.07 255.474,230.75 
			255.001,229.816 254.756,229.462 254.325,229.621 253.888,229.912 250.889,231.626 248.41,233.046 247.362,233.619 
			247.358,233.815 246.6,234.24 246.19,234.5 245.906,234.621 245.676,234.771 245.039,235.097 244.62,235.233 244.367,235.346 
			244.741,234.379 244.765,234.169 244.81,233.921 244.807,233.711 244.727,233.24 244.701,233.015 244.514,230.773 
			244.422,230.461 244.14,229.973 243.945,229.709 243.66,229.436 243.451,229.156 243.322,228.908 243.129,228.379 
			242.666,227.932 242.479,227.709 242.102,227.446 241.855,227.064 241.561,226.573 240.111,226.162 239.469,225.178 
			239.459,224.926 239.611,224.527 239.669,224.26 239.575,223.98 239.381,223.924 239.189,223.851 239.188,223.586 
			238.941,223.176 238.924,222.933 239.15,221.623 239.15,221.374 238.561,220.515 238.469,220.373 238.072,220.529 
			237.111,220.878 236.328,221.289 236.063,221.412 235.027,221.79 233.709,222.232 232.92,222.473 231.001,222.958 
			230.712,223.039 230.22,223.144 228.52,223.73 227.056,224.183 226.524,224.321 226.008,224.425 225.653,224.5 225.326,224.539 
			225.122,224.534 224.376,224.502 223.615,224.514 223.335,224.5 223.102,224.479 222.294,224.428 219.717,224.271 
			212.528,223.946 212.197,222.432 212.392,220.799 212.576,219.413 213.041,217.737 212.938,217.426 213.37,217.248 
			213.264,216.941 213.586,216.274 213.71,215.82 213.799,215.365 213.271,215.793 213.064,215.844 212.799,215.985 
			212.301,216.254 211.769,216.535 211.362,216.797 210.878,217.11 210.541,217.338 210.137,217.604 209.868,217.785 
			209.676,217.613 209.363,217.332 209.166,217.164 208.916,216.96 208.604,216.721 208.271,216.504 207.978,216.4 207.633,216.261 
			207.417,216.153 207.128,216 206.793,215.823 206.121,215.512 205.91,215.414 205.441,215.086 204.414,214.547 203.784,214.32 
			202.867,214.904 201.326,215.33 199.722,215.73 199.139,215.875 197.499,216.157 196.809,216.282 196.447,216.381 
			195.781,216.565 195.307,216.615 194.214,216.797 193.035,217.138 192.17,217.393 191.972,217.405 190.418,217.641 
			189.028,217.979 188.447,218.232 187.329,218.726 187.013,216.438 186.964,215.82 186.857,215.416 186.611,214.7 186.355,213.684 
			186.363,213.438 186.274,213.1 185.971,212.83 185.398,211.072 184.706,209.29 183.875,206.914 183.32,205.508 182.583,203.22 
			182.315,202.273 182.11,201.587 181.895,201.006 181.216,200.73 180.311,200.369 180.008,200.289 178.485,200.525 
			177.124,200.969 176.799,201.076 176.075,201.407 175.321,201.77 174.732,202.054 173.599,202.62 173.334,202.85 173.12,202.947 
			172.859,203.038 171.926,203.535 171.021,204.032 170.419,204.34 169.712,204.723 168.927,204.996 168.692,205.039 
			165.685,206.434 164.939,206.645 164.51,206.729 163.742,206.932 162.872,207.21 162.072,207.51 161.037,207.927 160.227,208.131 
			160.019,208.191 159.65,208.323 159.507,208.927 159.496,209.258 159.58,210.389 159.882,211.958 160.033,212.562 
			160.238,213.307 160.91,215.732 161.933,219.396 162.627,221.917 163.219,224.216 163.373,224.709 163.569,225.826 
			163.582,226.285 163.384,226.739 163.016,227.598 162.17,229.573 161.08,232.127 160.641,233.268 160.581,233.418 159.242,233.32 
			156.916,233.185 156.962,232.902 155.904,233.036 155.601,233.089 154.615,232.913 154.146,232.842 153.262,232.795 153,232.754 
			152.184,232.623 151.531,232.521 151.147,232.466 150.411,232.38 147.488,232.219 145.899,232.146 145.914,231.546 
			145.757,231.096 145.776,230.51 145.834,229.871 145.764,229.271 145.814,228.913 145.702,227.375 145.564,225.967 
			145.533,225.59 145.405,224.207 144.645,224.27 143.261,224.38 143.129,224.392 141.49,224.521 140.694,224.534 140.379,224.521 
			139.811,224.5 137.77,224.291 138.556,220.404 137.014,219.457 135.102,218.276 134.371,217.915 133.628,217.412 132.772,216.869 
			132.417,216.546 131.986,216.195 131.432,215.744 130.463,214.953 129.762,214.249 128.865,213.555 128.149,212.854 
			126.725,211.412 125.375,210.053 125.425,207.822 125.396,207.09 124.908,207.414 122.043,209.25 120.796,210.012 
			120.215,210.363 118.276,211.51 116.45,212.589 114.24,213.943 112.158,215.344 111.824,215.744 111.338,216.261 110.967,215.744 
			110.2,214.553 108.986,212.479 108.221,211.325 106.896,209.346 106.41,208.637 106.162,208.268 105.861,207.814 105.285,206.95 
			104.066,205.012 104.331,204.885 104.51,204.615 104.58,204.28 104.601,204.064 104.484,203.838 103.077,204.779 102.723,205.071 
			100.629,206.99 100.06,207.522 98.4,209.03 97.561,209.791 97.17,210.098 95.934,211.074 94.977,211.826 94.712,211.964 
			94.508,212.057 93.695,212.342 93.453,212.381 93.256,212.535 92.515,212.633 92.149,212.619 91.854,212.568 91.65,212.571 
			90.76,212.556 90.568,212.544 89.718,212.194 89.307,211.998 88.253,211.342 87.833,211.183 87.408,211.066 87.021,211.016 
			86.418,211.005 85.753,211.061 85.434,211.109 85.19,211.146 84.559,211.296 84.088,211.475 83.729,211.651 83.061,212.051 
			83.027,211.756 82.881,210.177 82.863,209.898 82.675,209.52 82.769,209.185 82.794,207.274 82.797,207.065 82.537,205.326 
			82.28,204.141 82.221,203.607 82.091,202.91 81.884,201.728 81.665,200.93 81.47,200.355 81.377,200.093 80.503,200.203 
			78.928,200.305 77.744,200.384 76.787,200.35 76.249,200.482 75.582,200.732 75.127,200.716 74.016,200.627 73.605,200.563 
			72.912,200.432 72.488,200.386 71.967,200.3 71.691,200.283 71.289,200.5 70.545,200.755 70.21,200.887 69.683,201.096 
			68.956,201.41 68.74,201.464 68.271,201.574 67.664,202.043 67.434,202.193 66.779,202.538 66.479,202.617 65.841,202.972 
			64.744,203.41 63.92,203.658 63.193,203.805 62.622,203.946 61.07,204.205 60.602,204.21 60.321,204.271 59.648,204.221 
			59.229,204.307 58.993,204.396 58.303,204.846 54.106,207.293 54.002,207.354 51.594,208.633 48.664,210.148 48.111,210.439 
			42.137,213.615 42.109,215.746 42.091,216.058 41.855,216.628 41.674,217.208 41.45,217.756 41.418,218.141 41.439,218.359 
			42.631,218.314 46.183,217.772 47.158,217.533 47.49,217.435 47.689,218.965 46.668,219.725 46.401,219.9 46.092,219.924 
			43.768,220.098 42.579,220.222 42.123,220.24 40.776,220.014 40.193,219.827 39.213,219.589 36.894,219.248 36.308,219.164 
			36.035,219.123 35.115,218.695 34.986,218.506 34.793,218.232 34.84,217.789 34.279,217.983 33.119,218.791 32.607,219.192 
			30.742,220.779 29.564,222.137 29.019,222.848 30.181,224.006 30.381,224.063 30.577,224.018 30.369,225.146 30.07,225.102 
			29.741,225.037 29.436,225.214 29.18,225.104 28.573,224.521 28.088,224.08 27.516,223.536 27.607,222.512 27.714,221.951 
			28.104,221.916 29.345,221.865 28.751,222.628 28.975,222.814 29.316,222.203 29.52,221.918 30.654,220.69 32.798,218.755 
			32.607,218.644 32.289,218.621 31.438,218.585 31.192,217.682 32.479,217.474 31.971,217.138 31.71,217.073 31.018,216.722 
			30.584,216.301 30.08,216.817 28.328,218.071 27.89,218.322 27.567,218.415 26.983,218.336 26.787,218.218 26.504,218.053 
			26.231,217.741 25.064,216.738 24.52,216.087 24.286,215.746 23.623,214.77 23.369,214.268 23.156,214.226 22.577,214.045 
			20.711,212.922 20.451,212.616 20.305,211.943 20.193,211.755 19.908,211.324 19.648,210.979 19.305,210.623 19.051,210.41 
			19.514,209.802 19.139,209.487 18.145,209.302 18.292,208.643 19.042,208.84 20.047,208.684 19.945,208.08 20.284,208.025 
			20.547,207.983 20.415,207.287 20.161,207.324 19.806,207.373 19.703,206.865 19.563,206.158 18.915,205.92 18.589,205.903 
			18.572,206.154 18.628,206.35 18.661,206.67 18.652,206.865 18.523,207.994 18.526,208.323 18.445,208.549 18.123,208.58 
			17.932,208.629 17.596,208.426 17.4,208.516 16.799,208.291 15.732,207.949 15.743,207.585 15.74,206.834 15.585,206.139 
			15.557,205.79 15.654,205.596 15.256,205.572 14.6,205.78 14.068,206.02 13.717,206.057 13.654,206.246 13.992,206.867 
			14.279,207.262 14.552,207.487 14.73,207.744 14.677,207.96 14.741,208.195 14.369,208.451 14.049,208.741 12.177,207.881 
			11.768,207.447 11.557,207.338 11.358,207.277 11.069,207.191 10.889,206.548 10.871,205.817 9.955,201.314 13.33,199.621 
			13.768,199.096 14.288,198.442 14.514,197.725 14.533,197.485 15,197.035 15.188,196.984 15.659,197.143 15.973,197.464 
			16.411,197.654 16.831,197.756 17.445,198.075 17.826,197.087 18.418,196.848 19.08,196.012 21.199,194.17 20.844,191.749 
			21.658,191.301 23.153,189.01 24.998,187.899 25.36,187.692 25.857,187.08 25.842,186.396 25.058,185.432 24.399,184.648 
			23.985,183.931 23.618,182.979 22.247,181.852 21.396,180.783 19.51,178.122 19.746,177.594 19.984,177.167 20.314,176.646 
			20.502,176.159 20.604,175.928 20.675,175.607 20.949,172.98 20.84,172.08 19.979,171.196 20.347,169.772 20.361,168.734 
			20.347,168.426 20.249,167.861 20.041,166.936 20.264,166.399 20.66,165.627 21.506,164.819 21.485,163.898 22.469,162.625 
			22.749,161.982 23.091,161.053 23.3,160.505 23.329,160.259 23.329,159.933 23.325,158.532 24.51,158.137 25.811,157.82 
			27.208,157.475 27.547,157.234 28.188,156.607 28.896,155.719 29.474,154.975 30.25,153.922 30.763,153.255 31.332,152.521 
			31.654,152.107 32.236,151.38 33.75,149.422 34.962,147.862 36.441,145.996 37.527,144.621 37.726,144.361 38.525,143.566 
			38.986,143.02 39.17,142.801 39.398,142.533 39.663,142.213 39.888,141.945 40.16,141.639 40.85,140.867 41.186,140.491 
			41.604,140.004 41.855,139.714 42.638,138.909 44.105,137.302 45.869,135.324 46.004,135.064 46.344,134.783 45.948,134.565 
			45.641,134.396 44.447,133.742 44.233,133.625 43.832,133.372 43.428,133.108 42.857,132.737 42.147,132.272 41.769,132.083 
			41.355,131.977 41.143,131.865 40.686,131.556 40.489,131.431 40.299,131.312 39.741,130.947 39.458,130.724 39.181,130.509 
			38.826,130.227 38.466,130.023 38.056,129.765 37.219,129.207 37.025,129.086 36.736,128.931 36.277,128.805 35.907,128.769 
			35.65,128.408 35.552,128.056 35.444,127.663 35.24,127.435 35.023,127.319 34.796,127.202 34.602,127.052 34.061,127.128 
			33.213,127.375 32.705,127.521 32.323,127.636 31.893,127.73 31.625,127.792 31.057,127.897 29.844,128.195 29.316,128.287 
			28.809,128.315 28.432,128.406 28.043,128.503 27.45,128.652 27.251,128.687 26.615,128.676 25.861,128.742 24.578,128.933 
			24.385,128.961 23.993,128.979 23.712,128.989 23.183,128.957 23.32,128.181 23.38,127.774 23.434,127.453 23.473,127.204 
			23.534,126.916 23.652,126.37 23.784,125.486 23.729,125.022 23.748,124.807 23.725,124.451 23.828,123.792 23.85,122.736 
			23.856,122.33 23.896,121.806 23.912,121.565 23.927,121.171 23.945,120.602 23.979,120.402 24.014,120.163 24.063,119.775 
			24.077,119.516 24.122,119.174 24.189,118.82 24.297,118.381 24.41,117.903 24.615,117.342 24.908,116.612 25.122,116.092 
			25.695,114.664 25.891,114.129 25.972,113.79 26.157,112.932 26.211,112.683 26.369,111.918 26.763,109.396 26.709,108.762 
			27.168,107.132 27.597,105.639 27.831,104.722 28.301,103.014 28.799,101.183 29.073,100.181 29.351,100.39 29.814,100.797 
			30.377,101.593 30.889,102.159 31.431,102.506 31.725,102.665 32.036,102.738 32.696,102.78 33.819,102.872 34.063,102.903 
			34.508,103.017 34.815,103.051 35.15,103.059 35.293,102.989 35.416,102.747 35.779,102.685 36.07,102.328 36.108,102.047 
			36.242,101.726 36.52,101.359 36.597,101.079 36.65,100.631 36.59,100.164 36.45,99.367 36.454,98.756 36.412,98.268 
			36.334,98.044 36.231,97.83 36.039,96.966 35.929,96.773 36.313,96.378 36.543,96.176 36.747,94.198 36.786,93.894 36.908,93.625 
			37.329,93.009 37.527,92.675 37.871,92.015 38,91.452 38.381,90.403 38.374,89.99 38.451,89.762 38.735,89.603 38.961,89.123 
			39.111,88.347 39.066,87.99 39.132,87.741 39.308,87.497 39.374,86.516 39.445,86.171 39.389,85.775 39.443,85.5 39.379,84.793 
			39.429,84.337 39.352,83.708 39.224,83.146 38.963,82.498 38.727,81.972 38.501,81.37 38.413,80.747 38.194,80.441 37.905,80.251 
			37.755,79.956 36.754,80.285 35.477,80.835 35.09,81.186 34.673,81.248 34.32,81.367 33.385,81.787 32.993,82.049 32.582,82.005 
			32.246,81.983 31.559,82.245 31.207,82.318 29.985,82.623 29.639,82.287 29.463,81.739 29.334,81.101 29.088,80.317 
			28.938,80.104 28.72,79.941 27.957,80.032 28.545,77.968 28.15,77.912 28.212,77.026 28.639,76.779 29.334,77.283 30.076,77.25 
			31.35,76.931 32.479,75.914 33.114,75.668 34.936,75.237 36.203,74.443 37.512,73.663 38.635,72.293 39.342,71.277 39.658,70.746 
			39.991,70.146 40.161,69.914 40.391,69.704 40.702,69.495 41.102,69.322 42.182,69.003 43.038,68.796 44.38,68.474 45.302,69.103 
			45.528,69.274 45.86,69.641 46.153,69.778 47.012,69.96 48.002,70.378 48.211,70.578 48.663,71.012 48.979,71.123 49.566,71.245 
			50.161,71.302 50.666,71.32 50.986,71.423 51.336,71.626 51.817,71.841 52.163,71.977 52.613,72.11 52.93,72.16 53.183,72.249 
			53.465,72.393 54.078,73.045 54.307,73.23 54.645,73.415 55.084,73.63 55.712,73.93 55.986,74.187 56.494,74.612 56.746,74.743 
			57.26,74.915 57.834,75.068 59.032,75.281 59.325,75.397 59.598,75.474 59.95,75.677 60.555,75.774 60.829,75.877 61.07,76.059 
			61.357,76.251 61.573,76.39 62.615,76.709 63.222,75.403 64.615,75.413 68.242,76.196 69.105,74.429 69.256,73.916 69.087,73.173 
			68.761,72.6 67.494,71.284 66.955,70.876 65.691,69.931 65.35,69.63 64.725,68.942 63.883,68.021 63.603,67.551 62.955,66.481 
			62.027,65.123 61.656,64.707 61.416,64.377 61.201,63.814 61.127,63.193 61.122,62.857 61.151,62.562 61.213,62.36 61.496,62.065 
			61.705,61.932 61.895,61.847 62.82,61.438 63.148,61.251 63.373,61.035 63.555,60.766 63.699,60.531 64.006,60.021 64.367,59.255 
			64.713,58.518 66.027,55.921 66.714,54.495 67.241,53.402 67.443,53.243 68.125,52.606 68.652,51.329 68.77,51.072 69.569,49.326 
			69.683,48.858 69.723,48.431 69.776,47.58 69.857,47.265 69.885,46.936 69.872,46.622 70.265,46.649 70.825,46.688 71.549,46.534 
			71.959,46.655 72.172,46.649 72.374,46.979 72.979,47.126 73.279,47.17 73.592,47.214 74.1,47.252 74.403,47.274 75.172,47.221 
			76.582,46.946 78.687,46.872 79.097,46.765 79.285,46.695 79.545,46.608 79.842,46.558 80.087,46.608 80.313,46.688 
			81.376,47.291 81.841,47.329 82.06,47.34 82.28,47.274 82.814,47.135 83.176,47.181 83.412,47.232 84.156,47.287 84.413,47.276 
			84.988,47.161 85.253,47.153 86.096,47.122 86.466,46.99 86.807,46.99 87.599,46.998 87.844,46.948 88.396,47.068 88.955,47.306 
			89.355,47.368 89.715,47.634 89.719,47.212 89.766,46.494 89.8,45.824 89.868,44.965 89.92,44.225 89.956,43.736 89.96,43.434 
			89.992,42.791 90.041,41.823 89.949,41.396 89.747,40.617 89.531,40.021 89.385,39.755 89.039,39.116 88.907,38.824 88.798,38.39 
			88.769,38.071 88.742,37.819 88.707,37.375 90.117,37.7 92.007,38.137 93.017,38.043 94.191,37.709 95.139,37.737 95.404,37.713 
			97.472,37.228 98.062,37.15 98.373,37.103 98.722,33.258 98.839,32.02 98.671,31.613 99.012,30.216 99.092,28.899 99.11,28.621 
			97.662,28.521 97.765,27.006 97.873,25.311 98.047,22.522 98.53,22.684 98.887,22.739 99.224,22.794 99.501,22.884 99.789,23 
			100.06,23.097 100.302,23.12 100.507,23.113 100.709,23.076 101.255,23.146 102.72,23.461 102.924,23.542 103.277,23.569 
			103.469,23.573 103.7,23.566 104.111,23.557 104.906,23.561 105.763,23.561 106.154,23.579 106.574,23.655 106.846,23.652 
			107.143,23.621 107.824,23.483 109.07,23.346 109.299,23.782 109.907,24.409 110.266,24.93 110.463,25.022 106.104,27.939 
			108.563,32.603 108.939,33.629 109.688,35.057 110.024,34.958 110.105,35.708 110.155,35.895 110.039,36.523 109.937,36.881 
			109.563,37.384 109.596,37.757 109.174,37.922 109.166,38.191 108.729,38.261 108.96,38.857 109.041,39.301 109.137,39.656 
			108.596,39.977 108.589,40.309 108.813,40.892 109.364,41.915 110.156,43.506 110.322,44.474 110.347,44.665 110.486,44.856 
			110.311,45.212 110.574,45.283 110.435,45.544 109.889,45.975 108.777,46.298 108.592,46.376 108.191,46.638 107.335,46.965 
			107.08,47.17 107.153,47.245 109.17,46.946 109.757,46.789 110.076,46.779 110.839,46.697 111.549,46.593 111.748,46.613 
			112.118,46.743 112.605,47 112.805,47.087 113.654,47.329 114.469,47.678 114.658,47.734 115.151,47.802 116.051,47.874 
			116.544,47.938 116.825,48.002 117.254,48.161 117.525,48.299 118.159,48.466 118.904,48.664 119.146,48.779 119.648,49.076 
			120.332,49.511 120.545,49.643 120.74,49.558 122.502,50.722 122.655,50.535 123.038,50.44 123.225,50.382 123.267,50.187 
			123.611,50.286 124.018,50.239 124.263,50.31 124.652,50.194 124.975,50.232 125.259,50.117 125.523,50.115 125.913,49.939 
			127.09,50.011 129.067,49.835 129.194,50.512 129.395,50.411 129.631,50.488 129.688,50.696 129.835,50.497 129.953,50.418 
			130.147,50.363 130.598,50.336 130.789,50.15 130.986,50.031 131.173,50.132 131.376,50.258 131.592,50.315 131.994,50.394 
			132.248,50.226 132.622,50.117 132.823,49.762 133.032,49.643 133.334,49.665 133.564,49.478 133.799,49.48 133.944,49.255 
			134.293,49.03 134.552,49.034 134.723,49.25 135.181,49.245 135.451,49.052 135.242,48.896 135.015,48.728 135.338,48.596 
			135.557,48.798 135.771,48.704 135.987,48.625 136.104,48.684 136.355,48.673 136.24,48.416 136.441,48.271 136.652,48.44 
			136.87,48.515 137.348,48.154 137.441,47.914 137.694,47.506 137.908,47.234 138.202,47.362 138.498,47.3 138.77,47.073 
			139.402,46.836 140.494,45.789 140.771,45.523 140.449,44.802 140.131,44.329 140.376,44.211 141.045,43.106 141.129,42.765 
			141.363,42.429 141.604,42.092 141.89,42.429 142.149,42.08 142.281,41.883 143.296,41.462 143.209,41.224 142.746,40.886 
			142.949,40.597 143.257,40.463 143.448,40.439 143.648,40.459 143.873,40.525 144.071,40.558 144.357,40.54 144.631,40.461 
			145.248,40.183 145.483,40.068 145.691,39.977 146.141,39.467 146.329,39.154 146.41,38.678 146.52,38.411 146.587,38.149 
			146.584,37.779 146.581,37.592 146.577,37.145 146.567,36.744 146.619,36.503 146.75,36.233 147.05,35.822 147.4,35.336 
			147.623,35.237 147.646,34.815 147.715,34.483 147.792,34.077 147.953,33.82 148.065,33.631 148.389,33.035 148.445,32.702 
			148.54,32.372 149.127,32.531 149.435,32.533 149.815,32.246 149.63,32.106 149.855,31.803 150.084,31.705 150.245,31.816 
			150.654,32.327 150.93,32.639 151.164,32.883 151.832,33.581 152.374,34.079 152.738,34.375 153.203,34.705 153.886,35.106 
			154.189,35.374 154.493,35.766 154.678,36.007 155.129,35.813 155.714,35.662 156.733,35.396 156.949,35.644 157.207,35.944 
			157.461,36.04 157.778,36.069 157.906,36.272 157.929,36.498 157.914,36.696 157.753,37.008 157.778,37.229 158.67,38.37 
			158.939,38.59 160.273,39.598 		"/>
		<path fill="#EB0037" d="M175.122,54.139c4.609,0,8.349-3.737,8.349-8.346c0-4.61-3.739-8.345-8.349-8.345
			c-4.612,0-8.349,3.735-8.349,8.345C166.773,50.401,170.51,54.139,175.122,54.139"/>
	</g>
</g>
</svg>
